<svg width="10" height="6" viewBox="0 0 10 6" fill="none" xmlns="http://www.w3.org/2000/svg">
<path fill-rule="evenodd" clip-rule="evenodd" d="M0.234438 0.484438C0.269272 0.449515 0.310654 0.421808 0.356213 0.402903C0.401772 0.383998 0.450612 0.374268 0.499938 0.374268C0.549263 0.374268 0.598104 0.383998 0.643663 0.402903C0.689222 0.421808 0.730604 0.449515 0.765438 0.484438L4.99994 4.71969L9.23444 0.484438C9.2693 0.449572 9.3107 0.421914 9.35625 0.403045C9.4018 0.384176 9.45063 0.374464 9.49994 0.374464C9.54925 0.374464 9.59807 0.384176 9.64363 0.403045C9.68918 0.421914 9.73057 0.449572 9.76544 0.484438C9.8003 0.519304 9.82796 0.560695 9.84683 0.60625C9.8657 0.651805 9.87541 0.70063 9.87541 0.749938C9.87541 0.799246 9.8657 0.848071 9.84683 0.893626C9.82796 0.93918 9.8003 0.980572 9.76544 1.01544L5.26544 5.51544C5.2306 5.55036 5.18922 5.57807 5.14366 5.59697C5.0981 5.61588 5.04926 5.62561 4.99994 5.62561C4.95061 5.62561 4.90177 5.61588 4.85621 5.59697C4.81065 5.57807 4.76927 5.55036 4.73444 5.51544L0.234438 1.01544C0.199516 0.980604 0.171808 0.939222 0.152904 0.893663C0.133999 0.848104 0.124268 0.799263 0.124268 0.749938C0.124268 0.700612 0.133999 0.651771 0.152904 0.606213C0.171808 0.560654 0.199516 0.519272 0.234438 0.484438Z" fill="#543EA3"/>
</svg>
