<svg width="12" height="12" viewBox="0 0 12 12" fill="none" xmlns="http://www.w3.org/2000/svg">
<path fill-rule="evenodd" clip-rule="evenodd" d="M1.23444 3.48456C1.26927 3.44964 1.31065 3.42193 1.35621 3.40303C1.40177 3.38412 1.45061 3.37439 1.49994 3.37439C1.54926 3.37439 1.5981 3.38412 1.64366 3.40303C1.68922 3.42193 1.7306 3.44964 1.76544 3.48456L5.99994 7.71981L10.2344 3.48456C10.2693 3.44969 10.3107 3.42204 10.3562 3.40317C10.4018 3.3843 10.4506 3.37459 10.4999 3.37459C10.5492 3.37459 10.5981 3.3843 10.6436 3.40317C10.6892 3.42204 10.7306 3.44969 10.7654 3.48456C10.8003 3.51943 10.828 3.56082 10.8468 3.60637C10.8657 3.65193 10.8754 3.70075 10.8754 3.75006C10.8754 3.79937 10.8657 3.84819 10.8468 3.89375C10.828 3.9393 10.8003 3.98069 10.7654 4.01556L6.26544 8.51556C6.2306 8.55048 6.18922 8.57819 6.14366 8.59709C6.0981 8.616 6.04926 8.62573 5.99994 8.62573C5.95061 8.62573 5.90177 8.616 5.85621 8.59709C5.81065 8.57819 5.76927 8.55048 5.73444 8.51556L1.23444 4.01556C1.19952 3.98073 1.17181 3.93934 1.1529 3.89379C1.134 3.84823 1.12427 3.79939 1.12427 3.75006C1.12427 3.70073 1.134 3.65189 1.1529 3.60633C1.17181 3.56078 1.19952 3.51939 1.23444 3.48456Z" fill="#543EA3"/>
</svg>
