<svg width="22" height="22" viewBox="0 0 22 22" fill="none" xmlns="http://www.w3.org/2000/svg">
<g clip-path="url(#clip0_405_1098)">
<path d="M19.9375 4.125C20.1198 4.125 20.2947 4.19743 20.4236 4.32636C20.5526 4.4553 20.625 4.63016 20.625 4.8125V17.1875C20.625 17.3698 20.5526 17.5447 20.4236 17.6736C20.2947 17.8026 20.1198 17.875 19.9375 17.875H2.0625C1.88016 17.875 1.7053 17.8026 1.57636 17.6736C1.44743 17.5447 1.375 17.3698 1.375 17.1875V4.8125C1.375 4.63016 1.44743 4.4553 1.57636 4.32636C1.7053 4.19743 1.88016 4.125 2.0625 4.125H19.9375ZM2.0625 2.75C1.51549 2.75 0.990886 2.9673 0.604092 3.35409C0.217298 3.74089 0 4.26549 0 4.8125L0 17.1875C0 17.7345 0.217298 18.2591 0.604092 18.6459C0.990886 19.0327 1.51549 19.25 2.0625 19.25H19.9375C20.4845 19.25 21.0091 19.0327 21.3959 18.6459C21.7827 18.2591 22 17.7345 22 17.1875V4.8125C22 4.26549 21.7827 3.74089 21.3959 3.35409C21.0091 2.9673 20.4845 2.75 19.9375 2.75H2.0625Z" fill="#212529"/>
<path d="M6.875 11C6.875 10.8177 6.94743 10.6428 7.07636 10.5139C7.2053 10.3849 7.38016 10.3125 7.5625 10.3125H17.1875C17.3698 10.3125 17.5447 10.3849 17.6736 10.5139C17.8026 10.6428 17.875 10.8177 17.875 11C17.875 11.1823 17.8026 11.3572 17.6736 11.4861C17.5447 11.6151 17.3698 11.6875 17.1875 11.6875H7.5625C7.38016 11.6875 7.2053 11.6151 7.07636 11.4861C6.94743 11.3572 6.875 11.1823 6.875 11ZM6.875 7.5625C6.875 7.38016 6.94743 7.2053 7.07636 7.07636C7.2053 6.94743 7.38016 6.875 7.5625 6.875H17.1875C17.3698 6.875 17.5447 6.94743 17.6736 7.07636C17.8026 7.2053 17.875 7.38016 17.875 7.5625C17.875 7.74484 17.8026 7.9197 17.6736 8.04864C17.5447 8.17757 17.3698 8.25 17.1875 8.25H7.5625C7.38016 8.25 7.2053 8.17757 7.07636 8.04864C6.94743 7.9197 6.875 7.74484 6.875 7.5625ZM6.875 14.4375C6.875 14.2552 6.94743 14.0803 7.07636 13.9514C7.2053 13.8224 7.38016 13.75 7.5625 13.75H17.1875C17.3698 13.75 17.5447 13.8224 17.6736 13.9514C17.8026 14.0803 17.875 14.2552 17.875 14.4375C17.875 14.6198 17.8026 14.7947 17.6736 14.9236C17.5447 15.0526 17.3698 15.125 17.1875 15.125H7.5625C7.38016 15.125 7.2053 15.0526 7.07636 14.9236C6.94743 14.7947 6.875 14.6198 6.875 14.4375ZM5.5 7.5625C5.5 7.74484 5.42757 7.9197 5.29864 8.04864C5.1697 8.17757 4.99484 8.25 4.8125 8.25C4.63016 8.25 4.4553 8.17757 4.32636 8.04864C4.19743 7.9197 4.125 7.74484 4.125 7.5625C4.125 7.38016 4.19743 7.2053 4.32636 7.07636C4.4553 6.94743 4.63016 6.875 4.8125 6.875C4.99484 6.875 5.1697 6.94743 5.29864 7.07636C5.42757 7.2053 5.5 7.38016 5.5 7.5625ZM5.5 11C5.5 11.1823 5.42757 11.3572 5.29864 11.4861C5.1697 11.6151 4.99484 11.6875 4.8125 11.6875C4.63016 11.6875 4.4553 11.6151 4.32636 11.4861C4.19743 11.3572 4.125 11.1823 4.125 11C4.125 10.8177 4.19743 10.6428 4.32636 10.5139C4.4553 10.3849 4.63016 10.3125 4.8125 10.3125C4.99484 10.3125 5.1697 10.3849 5.29864 10.5139C5.42757 10.6428 5.5 10.8177 5.5 11ZM5.5 14.4375C5.5 14.6198 5.42757 14.7947 5.29864 14.9236C5.1697 15.0526 4.99484 15.125 4.8125 15.125C4.63016 15.125 4.4553 15.0526 4.32636 14.9236C4.19743 14.7947 4.125 14.6198 4.125 14.4375C4.125 14.2552 4.19743 14.0803 4.32636 13.9514C4.4553 13.8224 4.63016 13.75 4.8125 13.75C4.99484 13.75 5.1697 13.8224 5.29864 13.9514C5.42757 14.0803 5.5 14.2552 5.5 14.4375Z" fill="#212529"/>
</g>
<defs>
<clipPath id="clip0_405_1098">
<rect width="22" height="22" fill="white"/>
</clipPath>
</defs>
</svg>
