<svg width="145" height="30" viewBox="0 0 145 30" fill="none" xmlns="http://www.w3.org/2000/svg">
<path d="M0 3.02703C0 1.35525 1.33681 0 2.98585 0H24.6332C26.2823 0 27.6191 1.35525 27.6191 3.02703V24.973C27.6191 26.6448 26.2823 28 24.6332 28H2.98585C1.33681 28 0 26.6448 0 24.973V3.02703Z" fill="#543EA3"/>
<path d="M15.5357 12.3644C14.5824 10.6904 15.1482 8.54981 16.7994 7.58331L22.7317 18.0001C23.685 19.6741 23.1192 21.8146 21.468 22.7811L15.5357 12.3644Z" fill="white"/>
<path d="M14.9603 19.8333C13.0536 19.8333 11.5079 18.2663 11.5079 16.3333H19.5634C21.4701 16.3333 23.0158 17.9003 23.0158 19.8333H14.9603Z" fill="white"/>
<path d="M5.17856 17.9689C4.22521 19.6429 4.79097 21.7835 6.44222 22.75L14.4194 8.74245C15.3728 7.06843 14.8071 4.92786 13.1557 3.96136L5.17856 17.9689Z" fill="white"/>
<g opacity="0.9">
<path d="M44.0198 12H41.9295L38.5648 7.51562C38.4389 7.34701 38.3625 7.23307 38.3355 7.17383H38.3085V12H36.7037V2.19727H38.3085V6.80469H38.3355C38.3894 6.70443 38.4658 6.59277 38.5648 6.46973L41.8081 2.19727H43.7298L39.9336 6.90039L44.0198 12Z" fill="#543EA3"/>
<path d="M50.2706 12H48.7534V10.9062H48.7264C48.2499 11.7448 47.5509 12.1641 46.6294 12.1641C45.9505 12.1641 45.4179 11.9772 45.0312 11.6035C44.6492 11.2298 44.4581 10.7354 44.4581 10.1201C44.4581 8.7985 45.2089 8.02832 46.7103 7.80957L48.7601 7.51562C48.7601 6.51758 48.2926 6.01855 47.3575 6.01855C46.535 6.01855 45.7932 6.30566 45.1324 6.87988V5.49219C45.8607 5.05469 46.7013 4.83594 47.6542 4.83594C49.3985 4.83594 50.2706 5.70638 50.2706 7.44727V12ZM48.7601 8.56152L47.3104 8.7666C46.8609 8.82585 46.5215 8.9375 46.2922 9.10156C46.0674 9.26107 45.9551 9.54362 45.9551 9.94922C45.9551 10.2454 46.0585 10.4893 46.2652 10.6807C46.4765 10.8675 46.7574 10.9609 47.1081 10.9609C47.5846 10.9609 47.9779 10.7923 48.2881 10.4551C48.6028 10.1133 48.7601 9.6849 48.7601 9.16992V8.56152Z" fill="#543EA3"/>
<path d="M57.8698 1.52051V2.86719C57.69 2.99023 57.4 3.08138 56.9999 3.14062C56.0109 3.2819 55.3187 3.41862 54.9231 3.55078C54.532 3.67839 54.2106 3.9541 53.9588 4.37793C53.7071 4.7972 53.5454 5.41243 53.4733 6.22363H53.5004C54.0128 5.52181 54.7456 5.1709 55.6986 5.1709C56.62 5.1709 57.3618 5.48307 57.9238 6.10742C58.4856 6.72721 58.7665 7.54753 58.7665 8.56836C58.7665 9.65299 58.4541 10.5234 57.8294 11.1797C57.2089 11.8359 56.3706 12.1641 55.3142 12.1641C54.1993 12.1641 53.3408 11.779 52.7384 11.0088C52.1405 10.2386 51.8416 9.13802 51.8416 7.70703C51.8416 6.60417 51.9517 5.66992 52.172 4.9043C52.3923 4.13867 52.6979 3.56217 53.089 3.1748C53.4802 2.78743 53.914 2.52083 54.3904 2.375C54.8669 2.22917 55.685 2.05827 56.8448 1.8623C57.3034 1.76204 57.645 1.64811 57.8698 1.52051ZM53.4531 7.51562V8.39062C53.4577 8.71419 53.5048 9.03548 53.5948 9.35449C53.6846 9.66895 53.8128 9.94694 53.9791 10.1885C54.1455 10.43 54.3432 10.61 54.5725 10.7285C54.8017 10.847 55.0624 10.9062 55.3547 10.9062C55.8941 10.9062 56.3301 10.6989 56.6628 10.2842C56.9999 9.86491 57.1685 9.32943 57.1685 8.67773C57.1685 7.98047 56.9977 7.42676 56.656 7.0166C56.3189 6.60189 55.8604 6.39453 55.2805 6.39453C54.4714 6.39453 53.8622 6.76823 53.4531 7.51562Z" fill="#543EA3"/>
<path d="M66.6424 12H65.2264V6.86621C65.1364 7.0485 64.9993 7.30143 64.8151 7.625L61.9089 12H60.3715V5H61.8077V10.0312C61.8572 9.91276 61.9628 9.70768 62.1246 9.41602L65.0713 5H66.6424V12Z" fill="#543EA3"/>
<path d="M74.8417 12H73.2706V8.9375H70.2633V12H68.6921V5H70.2633V7.74805H73.2706V5H74.8417V12Z" fill="#543EA3"/>
<path d="M82.7242 8.93066H78.0178C78.0357 9.5778 78.2312 10.0768 78.6044 10.4277C78.982 10.7786 79.4989 10.9541 80.1552 10.9541C80.8924 10.9541 81.569 10.7308 82.1849 10.2842V11.5625C81.5555 11.9635 80.7238 12.1641 79.69 12.1641C78.674 12.1641 77.8761 11.8473 77.2962 11.2139C76.7208 10.5758 76.4331 9.68034 76.4331 8.52734C76.4331 7.43815 76.75 6.55176 77.3839 5.86816C78.0222 5.18001 78.8134 4.83594 79.7574 4.83594C80.7014 4.83594 81.4319 5.14355 81.9488 5.75879C82.4658 6.37402 82.7242 7.22852 82.7242 8.32227V8.93066ZM81.2139 7.80957C81.2093 7.23991 81.0768 6.79785 80.8161 6.4834C80.5553 6.16439 80.1957 6.00488 79.7371 6.00488C79.2876 6.00488 78.9055 6.17122 78.5908 6.50391C78.2807 6.83659 78.0897 7.27181 78.0178 7.80957H81.2139Z" fill="#543EA3"/>
<path d="M88.9211 6.26465H86.9521V12H85.381V6.26465H83.3986V5H88.9211V6.26465Z" fill="#543EA3"/>
<path d="M44.6469 26H42.887L42.0172 23.5049H38.2142L37.3781 26H35.6249L39.2458 16.1973H41.0529L44.6469 26ZM41.5924 22.1787L40.2506 18.2686C40.21 18.141 40.1674 17.9359 40.1224 17.6533H40.0954C40.055 17.9131 40.01 18.1182 39.9606 18.2686L38.6322 22.1787H41.5924Z" fill="#543EA3"/>
<path d="M52.9408 28.5498H51.6395V26H46.7238V28.5498H45.4359V24.79H46.0496C47.1509 23.1403 47.7105 21.2103 47.7285 19H51.8822V24.79H52.9408V28.5498ZM50.3178 24.79V20.2031H49.0029C48.895 21.8984 48.4365 23.4274 47.6274 24.79H50.3178Z" fill="#543EA3"/>
<path d="M62.4685 26H60.9715V20.3945C60.8817 20.6771 60.7446 21.0941 60.5602 21.6455L59.0026 26H57.6136L56.029 21.6318C55.9436 21.3949 55.8065 20.9779 55.6177 20.3809V26H54.3433V19H56.3796L57.9642 23.3203C58.0766 23.6348 58.2204 24.07 58.3958 24.626L58.8273 23.3477L60.3781 19H62.4685V26Z" fill="#543EA3"/>
<path d="M70.7825 26H69.3664V20.8662C69.2766 21.0485 69.1395 21.3014 68.9551 21.625L66.049 26H64.5116V19H65.9478V24.0312C65.9973 23.9128 66.1029 23.7077 66.2647 23.416L69.2114 19H70.7825V26Z" fill="#543EA3"/>
<path d="M78.982 26H77.4108V22.9375H74.4035V26H72.8324V19H74.4035V21.748H77.4108V19H78.982V26Z" fill="#543EA3"/>
<path d="M87.2893 26H85.8733V20.8662C85.7834 21.0485 85.6463 21.3014 85.4619 21.625L82.5557 26H81.0183V19H82.4546V24.0312C82.504 23.9128 82.6097 23.7077 82.7715 23.416L85.7182 19H87.2893V26Z" fill="#543EA3"/>
<path d="M94.2816 25.6787C93.7288 26.0023 93.0747 26.1641 92.3195 26.1641C91.2945 26.1641 90.4674 25.8405 89.838 25.1934C89.2087 24.5417 88.894 23.6986 88.894 22.6641C88.894 21.5111 89.2312 20.5859 89.9055 19.8887C90.5843 19.1868 91.4901 18.8359 92.6229 18.8359C93.2522 18.8359 93.8074 18.9476 94.2884 19.1709V20.6475C93.8074 20.2829 93.2949 20.1006 92.751 20.1006C92.0903 20.1006 91.5485 20.3285 91.126 20.7842C90.7034 21.2354 90.4921 21.8278 90.4921 22.5615C90.4921 23.2861 90.69 23.8581 91.0855 24.2773C91.4856 24.6966 92.0205 24.9062 92.6904 24.9062C93.2522 24.9062 93.7827 24.7035 94.2816 24.2979V25.6787Z" fill="#543EA3"/>
<path d="M100.546 20.2646H98.5769V26H97.0059V20.2646H95.0234V19H100.546V20.2646Z" fill="#543EA3"/>
<path d="M103.378 24.9678H103.351V29.2197H101.786V19H103.351V20.2305H103.378C103.913 19.3008 104.695 18.8359 105.725 18.8359C106.601 18.8359 107.284 19.1481 107.775 19.7725C108.264 20.3968 108.509 21.2354 108.509 22.2881C108.509 23.4548 108.233 24.389 107.68 25.0908C107.126 25.7926 106.372 26.1436 105.414 26.1436C104.533 26.1436 103.855 25.7516 103.378 24.9678ZM103.338 22.2061V23.0742C103.338 23.5846 103.497 24.0176 103.816 24.373C104.14 24.7285 104.549 24.9062 105.043 24.9062C105.623 24.9062 106.077 24.6784 106.405 24.2227C106.738 23.7624 106.905 23.1221 106.905 22.3018C106.905 21.6136 106.75 21.0758 106.439 20.6885C106.133 20.2965 105.718 20.1006 105.192 20.1006C104.634 20.1006 104.185 20.3011 103.843 20.7021C103.506 21.1032 103.338 21.6045 103.338 22.2061Z" fill="#543EA3"/>
<path d="M115.245 26H113.728V24.9062H113.702C113.224 25.7448 112.526 26.1641 111.605 26.1641C110.925 26.1641 110.392 25.9772 110.006 25.6035C109.624 25.2298 109.433 24.7354 109.433 24.1201C109.433 22.7985 110.183 22.0283 111.686 21.8096L113.735 21.5156C113.735 20.5176 113.268 20.0186 112.333 20.0186C111.51 20.0186 110.768 20.3057 110.107 20.8799V19.4922C110.835 19.0547 111.676 18.8359 112.63 18.8359C114.373 18.8359 115.245 19.7064 115.245 21.4473V26ZM113.735 22.5615L112.285 22.7666C111.835 22.8258 111.496 22.9375 111.267 23.1016C111.042 23.2611 110.93 23.5436 110.93 23.9492C110.93 24.2454 111.034 24.4893 111.24 24.6807C111.452 24.8675 111.732 24.9609 112.083 24.9609C112.559 24.9609 112.953 24.7923 113.263 24.4551C113.577 24.1133 113.735 23.6849 113.735 23.1699V22.5615Z" fill="#543EA3"/>
<path d="M121.867 20.2646H119.898V26H118.327V20.2646H116.344V19H121.867V20.2646Z" fill="#543EA3"/>
<path d="M125.94 26.1641C124.875 26.1641 124.022 25.8382 123.384 25.1865C122.75 24.5303 122.433 23.6621 122.433 22.582C122.433 21.4062 122.764 20.488 123.425 19.8271C124.09 19.1663 124.984 18.8359 126.109 18.8359C127.187 18.8359 128.028 19.1572 128.63 19.7998C129.233 20.4424 129.533 21.3333 129.533 22.4727C129.533 23.5892 129.208 24.4847 128.556 25.1592C127.909 25.8291 127.037 26.1641 125.94 26.1641ZM126.014 20.1006C125.402 20.1006 124.919 20.3171 124.564 20.75C124.209 21.1829 124.031 21.7799 124.031 22.541C124.031 23.2747 124.211 23.8535 124.571 24.2773C124.931 24.6966 125.411 24.9062 126.014 24.9062C126.629 24.9062 127.102 24.6989 127.43 24.2842C127.763 23.8695 127.929 23.2793 127.929 22.5137C127.929 21.7435 127.763 21.1488 127.43 20.7295C127.102 20.3102 126.629 20.1006 126.014 20.1006Z" fill="#543EA3"/>
<path d="M132.723 24.9678H132.696V29.2197H131.131V19H132.696V20.2305H132.723C133.258 19.3008 134.04 18.8359 135.07 18.8359C135.946 18.8359 136.63 19.1481 137.12 19.7725C137.609 20.3968 137.855 21.2354 137.855 22.2881C137.855 23.4548 137.578 24.389 137.025 25.0908C136.472 25.7926 135.717 26.1436 134.759 26.1436C133.878 26.1436 133.2 25.7516 132.723 24.9678ZM132.683 22.2061V23.0742C132.683 23.5846 132.842 24.0176 133.161 24.373C133.485 24.7285 133.894 24.9062 134.388 24.9062C134.968 24.9062 135.422 24.6784 135.751 24.2227C136.083 23.7624 136.25 23.1221 136.25 22.3018C136.25 21.6136 136.095 21.0758 135.784 20.6885C135.478 20.2965 135.063 20.1006 134.537 20.1006C133.979 20.1006 133.53 20.3011 133.188 20.7021C132.852 21.1032 132.683 21.6045 132.683 22.2061Z" fill="#543EA3"/>
<path d="M144.591 26H143.074V24.9062H143.047C142.57 25.7448 141.871 26.1641 140.95 26.1641C140.27 26.1641 139.738 25.9772 139.351 25.6035C138.969 25.2298 138.778 24.7354 138.778 24.1201C138.778 22.7985 139.529 22.0283 141.031 21.8096L143.081 21.5156C143.081 20.5176 142.613 20.0186 141.678 20.0186C140.855 20.0186 140.114 20.3057 139.453 20.8799V19.4922C140.181 19.0547 141.021 18.8359 141.975 18.8359C143.719 18.8359 144.591 19.7064 144.591 21.4473V26ZM143.081 22.5615L141.631 22.7666C141.181 22.8258 140.841 22.9375 140.613 23.1016C140.388 23.2611 140.275 23.5436 140.275 23.9492C140.275 24.2454 140.379 24.4893 140.585 24.6807C140.797 24.8675 141.077 24.9609 141.428 24.9609C141.905 24.9609 142.298 24.7923 142.608 24.4551C142.923 24.1133 143.081 23.6849 143.081 23.1699V22.5615Z" fill="#543EA3"/>
</g>
</svg>
