<svg width="14" height="14" viewBox="0 0 14 14" fill="none" xmlns="http://www.w3.org/2000/svg">
<g clip-path="url(#clip0_416_1347)">
<path d="M10.2738 9.05035C11.1211 7.89421 11.5006 6.46078 11.3363 5.03686C11.1721 3.61294 10.4763 2.30353 9.38811 1.37059C8.29992 0.437661 6.89959 -0.0499914 5.4673 0.00519764C4.035 0.0603866 2.67635 0.654347 1.66317 1.66825C0.649997 2.68215 0.0570091 4.04122 0.00284501 5.47356C-0.0513191 6.9059 0.437336 8.30587 1.37105 9.39339C2.30476 10.4809 3.61467 11.1758 5.03871 11.339C6.46275 11.5022 7.8959 11.1217 9.05144 10.2736H9.05056C9.07681 10.3086 9.10481 10.3419 9.13632 10.3742L12.5051 13.743C12.6691 13.9072 12.8917 13.9994 13.1238 13.9995C13.3559 13.9996 13.5786 13.9075 13.7428 13.7434C13.9069 13.5793 13.9992 13.3568 13.9993 13.1247C13.9994 12.8926 13.9073 12.6699 13.7432 12.5057L10.3744 9.13698C10.3432 9.10531 10.3095 9.07606 10.2738 9.04948V9.05035ZM10.4996 5.68686C10.4996 6.31884 10.3751 6.94464 10.1332 7.52852C9.89138 8.1124 9.5369 8.64293 9.09002 9.08981C8.64313 9.53669 8.11261 9.89118 7.52873 10.133C6.94485 10.3749 6.31905 10.4994 5.68707 10.4994C5.05508 10.4994 4.42928 10.3749 3.8454 10.133C3.26152 9.89118 2.731 9.53669 2.28411 9.08981C1.83723 8.64293 1.48275 8.1124 1.24089 7.52852C0.999044 6.94464 0.874565 6.31884 0.874565 5.68686C0.874565 4.4105 1.38159 3.18642 2.28411 2.2839C3.18663 1.38139 4.41071 0.874356 5.68707 0.874356C6.96342 0.874356 8.1875 1.38139 9.09002 2.2839C9.99253 3.18642 10.4996 4.4105 10.4996 5.68686Z" fill="#6C757D"/>
</g>
<defs>
<clipPath id="clip0_416_1347">
<rect width="14" height="14" fill="white"/>
</clipPath>
</defs>
</svg>
