<svg width="40" height="42" viewBox="0 0 40 42" fill="none" xmlns="http://www.w3.org/2000/svg">
<rect y="2" width="40" height="40" rx="20" fill="#FBFBFF"/>
<path d="M14.5 14.4375C14.5 14.2552 14.5724 14.0803 14.7014 13.9514C14.8303 13.8224 15.0052 13.75 15.1875 13.75H16.5625C16.7448 13.75 16.9197 13.8224 17.0486 13.9514C17.1776 14.0803 17.25 14.2552 17.25 14.4375V15.8125C17.25 15.9948 17.1776 16.1697 17.0486 16.2986C16.9197 16.4276 16.7448 16.5 16.5625 16.5H15.1875C15.0052 16.5 14.8303 16.4276 14.7014 16.2986C14.5724 16.1697 14.5 15.9948 14.5 15.8125V14.4375ZM18.625 14.4375C18.625 14.2552 18.6974 14.0803 18.8264 13.9514C18.9553 13.8224 19.1302 13.75 19.3125 13.75H20.6875C20.8698 13.75 21.0447 13.8224 21.1736 13.9514C21.3026 14.0803 21.375 14.2552 21.375 14.4375V15.8125C21.375 15.9948 21.3026 16.1697 21.1736 16.2986C21.0447 16.4276 20.8698 16.5 20.6875 16.5H19.3125C19.1302 16.5 18.9553 16.4276 18.8264 16.2986C18.6974 16.1697 18.625 15.9948 18.625 15.8125V14.4375ZM23.4375 13.75C23.2552 13.75 23.0803 13.8224 22.9514 13.9514C22.8224 14.0803 22.75 14.2552 22.75 14.4375V15.8125C22.75 15.9948 22.8224 16.1697 22.9514 16.2986C23.0803 16.4276 23.2552 16.5 23.4375 16.5H24.8125C24.9948 16.5 25.1697 16.4276 25.2986 16.2986C25.4276 16.1697 25.5 15.9948 25.5 15.8125V14.4375C25.5 14.2552 25.4276 14.0803 25.2986 13.9514C25.1697 13.8224 24.9948 13.75 24.8125 13.75H23.4375ZM14.5 18.5625C14.5 18.3802 14.5724 18.2053 14.7014 18.0764C14.8303 17.9474 15.0052 17.875 15.1875 17.875H16.5625C16.7448 17.875 16.9197 17.9474 17.0486 18.0764C17.1776 18.2053 17.25 18.3802 17.25 18.5625V19.9375C17.25 20.1198 17.1776 20.2947 17.0486 20.4236C16.9197 20.5526 16.7448 20.625 16.5625 20.625H15.1875C15.0052 20.625 14.8303 20.5526 14.7014 20.4236C14.5724 20.2947 14.5 20.1198 14.5 19.9375V18.5625ZM19.3125 17.875C19.1302 17.875 18.9553 17.9474 18.8264 18.0764C18.6974 18.2053 18.625 18.3802 18.625 18.5625V19.9375C18.625 20.1198 18.6974 20.2947 18.8264 20.4236C18.9553 20.5526 19.1302 20.625 19.3125 20.625H20.6875C20.8698 20.625 21.0447 20.5526 21.1736 20.4236C21.3026 20.2947 21.375 20.1198 21.375 19.9375V18.5625C21.375 18.3802 21.3026 18.2053 21.1736 18.0764C21.0447 17.9474 20.8698 17.875 20.6875 17.875H19.3125ZM22.75 18.5625C22.75 18.3802 22.8224 18.2053 22.9514 18.0764C23.0803 17.9474 23.2552 17.875 23.4375 17.875H24.8125C24.9948 17.875 25.1697 17.9474 25.2986 18.0764C25.4276 18.2053 25.5 18.3802 25.5 18.5625V19.9375C25.5 20.1198 25.4276 20.2947 25.2986 20.4236C25.1697 20.5526 24.9948 20.625 24.8125 20.625H23.4375C23.2552 20.625 23.0803 20.5526 22.9514 20.4236C22.8224 20.2947 22.75 20.1198 22.75 19.9375V18.5625ZM15.1875 22C15.0052 22 14.8303 22.0724 14.7014 22.2014C14.5724 22.3303 14.5 22.5052 14.5 22.6875V24.0625C14.5 24.2448 14.5724 24.4197 14.7014 24.5486C14.8303 24.6776 15.0052 24.75 15.1875 24.75H16.5625C16.7448 24.75 16.9197 24.6776 17.0486 24.5486C17.1776 24.4197 17.25 24.2448 17.25 24.0625V22.6875C17.25 22.5052 17.1776 22.3303 17.0486 22.2014C16.9197 22.0724 16.7448 22 16.5625 22H15.1875ZM18.625 22.6875C18.625 22.5052 18.6974 22.3303 18.8264 22.2014C18.9553 22.0724 19.1302 22 19.3125 22H20.6875C20.8698 22 21.0447 22.0724 21.1736 22.2014C21.3026 22.3303 21.375 22.5052 21.375 22.6875V24.0625C21.375 24.2448 21.3026 24.4197 21.1736 24.5486C21.0447 24.6776 20.8698 24.75 20.6875 24.75H19.3125C19.1302 24.75 18.9553 24.6776 18.8264 24.5486C18.6974 24.4197 18.625 24.2448 18.625 24.0625V22.6875ZM23.4375 22C23.2552 22 23.0803 22.0724 22.9514 22.2014C22.8224 22.3303 22.75 22.5052 22.75 22.6875V24.0625C22.75 24.2448 22.8224 24.4197 22.9514 24.5486C23.0803 24.6776 23.2552 24.75 23.4375 24.75H24.8125C24.9948 24.75 25.1697 24.6776 25.2986 24.5486C25.4276 24.4197 25.5 24.2448 25.5 24.0625V22.6875C25.5 22.5052 25.4276 22.3303 25.2986 22.2014C25.1697 22.0724 24.9948 22 24.8125 22H23.4375Z" fill="#BCB5FF"/>
<path d="M11.75 12.375C11.75 12.0103 11.8949 11.6606 12.1527 11.4027C12.4106 11.1449 12.7603 11 13.125 11H26.875C27.2397 11 27.5894 11.1449 27.8473 11.4027C28.1051 11.6606 28.25 12.0103 28.25 12.375V31.625C28.25 31.9897 28.1051 32.3394 27.8473 32.5973C27.5894 32.8551 27.2397 33 26.875 33H13.125C12.7603 33 12.4106 32.8551 12.1527 32.5973C11.8949 32.3394 11.75 31.9897 11.75 31.625V12.375ZM26.875 12.375H13.125V31.625H17.25V28.1875C17.25 28.0052 17.3224 27.8303 17.4514 27.7014C17.5803 27.5724 17.7552 27.5 17.9375 27.5H22.0625C22.2448 27.5 22.4197 27.5724 22.5486 27.7014C22.6776 27.8303 22.75 28.0052 22.75 28.1875V31.625H26.875V12.375Z" fill="#BCB5FF"/>
</svg>
